<mxfile host="65bd71144e">
    <diagram id="iRc1kdBVz0h4nAgd-T1v" name="Page-1">
        <mxGraphModel dx="1119" dy="594" grid="1" gridSize="10" guides="1" tooltips="1" connect="1" arrows="1" fold="1" page="1" pageScale="1" pageWidth="1654" pageHeight="1169" math="0" shadow="0">
            <root>
                <mxCell id="0"/>
                <mxCell id="1" parent="0"/>
                <mxCell id="2" value="" style="rounded=0;whiteSpace=wrap;html=1;fontSize=20;fontStyle=1" parent="1" vertex="1">
                    <mxGeometry x="10" y="270" width="630" height="350" as="geometry"/>
                </mxCell>
                <mxCell id="3" value="" style="rounded=0;whiteSpace=wrap;html=1;fontSize=20;fontStyle=1;align=left;" parent="1" vertex="1">
                    <mxGeometry x="10" y="630" width="550" height="140" as="geometry"/>
                </mxCell>
                <mxCell id="4" value="" style="rounded=0;whiteSpace=wrap;html=1;fontSize=20;fontStyle=1" parent="1" vertex="1">
                    <mxGeometry x="10" y="780" width="820" height="150" as="geometry"/>
                </mxCell>
                <mxCell id="5" value="" style="rounded=0;whiteSpace=wrap;html=1;fontSize=20;fontStyle=1" parent="1" vertex="1">
                    <mxGeometry x="660" y="360" width="370" height="210" as="geometry"/>
                </mxCell>
                <mxCell id="6" value="" style="rounded=0;whiteSpace=wrap;html=1;fontSize=20;fontStyle=1" parent="1" vertex="1">
                    <mxGeometry x="840" y="730" width="430" height="200" as="geometry"/>
                </mxCell>
                <mxCell id="7" value="" style="rounded=0;whiteSpace=wrap;html=1;fontSize=20;fontStyle=1" parent="1" vertex="1">
                    <mxGeometry x="10" y="20" width="730" height="240" as="geometry"/>
                </mxCell>
                <mxCell id="8" value="&lt;span style=&quot;color: rgb(240, 240, 240);&quot;&gt;SearchPets&lt;/span&gt;UseCaseInterface" style="rounded=1;whiteSpace=wrap;html=1;fillColor=#0050ef;fontColor=#ffffff;strokeColor=#001DBC;fontSize=20;fontStyle=1" parent="1" vertex="1">
                    <mxGeometry x="135" y="660" width="305" height="90" as="geometry"/>
                </mxCell>
                <mxCell id="74" style="edgeStyle=none;html=1;exitX=1;exitY=0.5;exitDx=0;exitDy=0;entryX=0;entryY=0.5;entryDx=0;entryDy=0;strokeWidth=3;" parent="1" source="13" target="31" edge="1">
                    <mxGeometry relative="1" as="geometry"/>
                </mxCell>
                <mxCell id="75" style="edgeStyle=none;html=1;exitX=0.5;exitY=0;exitDx=0;exitDy=0;entryX=0.5;entryY=1;entryDx=0;entryDy=0;strokeWidth=3;dashed=1;" parent="1" source="13" target="8" edge="1">
                    <mxGeometry relative="1" as="geometry"/>
                </mxCell>
                <mxCell id="13" value="SearchPetsService" style="rounded=1;whiteSpace=wrap;html=1;fontSize=20;fontStyle=1" parent="1" vertex="1">
                    <mxGeometry x="167.5" y="815" width="240" height="80" as="geometry"/>
                </mxCell>
                <mxCell id="14" style="edgeStyle=none;html=1;exitX=0.5;exitY=1;exitDx=0;exitDy=0;strokeWidth=3;fontSize=20;fontStyle=1" parent="1" source="17" target="8" edge="1">
                    <mxGeometry relative="1" as="geometry">
                        <Array as="points">
                            <mxPoint x="155" y="590"/>
                            <mxPoint x="287" y="590"/>
                        </Array>
                    </mxGeometry>
                </mxCell>
                <mxCell id="15" style="edgeStyle=none;html=1;exitX=1;exitY=0.5;exitDx=0;exitDy=0;entryX=0;entryY=0.5;entryDx=0;entryDy=0;strokeWidth=3;fontSize=20;" parent="1" source="17" target="44" edge="1">
                    <mxGeometry relative="1" as="geometry"/>
                </mxCell>
                <mxCell id="16" style="edgeStyle=none;html=1;exitX=0.5;exitY=0;exitDx=0;exitDy=0;entryX=0.598;entryY=0.996;entryDx=0;entryDy=0;strokeWidth=3;fontSize=20;dashed=1;entryPerimeter=0;" parent="1" source="17" target="18" edge="1">
                    <mxGeometry relative="1" as="geometry">
                        <Array as="points">
                            <mxPoint x="155" y="370"/>
                            <mxPoint x="230" y="370"/>
                        </Array>
                    </mxGeometry>
                </mxCell>
                <mxCell id="17" value="PetSearchController" style="rounded=1;whiteSpace=wrap;html=1;fontSize=20;fontStyle=1" parent="1" vertex="1">
                    <mxGeometry x="30" y="450" width="250" height="80" as="geometry"/>
                </mxCell>
                <mxCell id="18" value="ControllerInterface" style="rounded=1;whiteSpace=wrap;html=1;fontSize=20;fillColor=#0050ef;fontColor=#ffffff;strokeColor=#001DBC;fontStyle=1" parent="1" vertex="1">
                    <mxGeometry x="60" y="170" width="290" height="80" as="geometry"/>
                </mxCell>
                <mxCell id="19" style="edgeStyle=none;html=1;exitX=0;exitY=0.5;exitDx=0;exitDy=0;entryX=1;entryY=0.5;entryDx=0;entryDy=0;strokeWidth=3;fontSize=20;" parent="1" source="20" target="18" edge="1">
                    <mxGeometry relative="1" as="geometry"/>
                </mxCell>
                <mxCell id="20" value="Routes" style="rounded=1;whiteSpace=wrap;html=1;fontSize=20;fontStyle=1" parent="1" vertex="1">
                    <mxGeometry x="410" y="170" width="230" height="80" as="geometry"/>
                </mxCell>
                <mxCell id="21" style="edgeStyle=none;html=1;exitX=1;exitY=0.25;exitDx=0;exitDy=0;entryX=0;entryY=0.5;entryDx=0;entryDy=0;strokeWidth=3;fontSize=20;fontStyle=1" parent="1" source="23" target="27" edge="1">
                    <mxGeometry relative="1" as="geometry">
                        <mxPoint x="399.9999999999998" y="70" as="targetPoint"/>
                    </mxGeometry>
                </mxCell>
                <mxCell id="22" style="edgeStyle=none;html=1;exitX=1;exitY=0.75;exitDx=0;exitDy=0;entryX=0.148;entryY=0.017;entryDx=0;entryDy=0;strokeWidth=3;fontSize=20;entryPerimeter=0;" parent="1" source="23" target="20" edge="1">
                    <mxGeometry relative="1" as="geometry">
                        <Array as="points">
                            <mxPoint x="370" y="110"/>
                            <mxPoint x="370" y="140"/>
                            <mxPoint x="440" y="140"/>
                        </Array>
                    </mxGeometry>
                </mxCell>
                <mxCell id="23" value="AppRunner" style="rounded=1;whiteSpace=wrap;html=1;fontSize=20;fontStyle=1" parent="1" vertex="1">
                    <mxGeometry x="90" y="50" width="230" height="80" as="geometry"/>
                </mxCell>
                <mxCell id="25" style="edgeStyle=none;html=1;exitX=1;exitY=0.5;exitDx=0;exitDy=0;entryX=0;entryY=0.5;entryDx=0;entryDy=0;strokeWidth=3;fontSize=20;fontStyle=1" parent="1" source="27" target="28" edge="1">
                    <mxGeometry relative="1" as="geometry"/>
                </mxCell>
                <mxCell id="27" value="ExpressAdapter" style="rounded=1;whiteSpace=wrap;html=1;fontSize=20;fontStyle=1" parent="1" vertex="1">
                    <mxGeometry x="480" y="40" width="230" height="80" as="geometry"/>
                </mxCell>
                <mxCell id="28" value="Express" style="rounded=1;whiteSpace=wrap;html=1;fontSize=20;fillColor=#e3c800;fontColor=#000000;strokeColor=#B09500;fontStyle=1" parent="1" vertex="1">
                    <mxGeometry x="775" y="40" width="230" height="80" as="geometry"/>
                </mxCell>
                <mxCell id="31" value="GetPetsRepositoryInterface" style="rounded=1;whiteSpace=wrap;html=1;fillColor=#0050ef;fontColor=#ffffff;strokeColor=#001DBC;fontSize=20;fontStyle=1" parent="1" vertex="1">
                    <mxGeometry x="480" y="810" width="275" height="90" as="geometry"/>
                </mxCell>
                <mxCell id="38" style="edgeStyle=none;html=1;exitX=1;exitY=0.5;exitDx=0;exitDy=0;entryX=0;entryY=0.5;entryDx=0;entryDy=0;strokeWidth=3;fontSize=20;" parent="1" source="40" target="43" edge="1">
                    <mxGeometry relative="1" as="geometry"/>
                </mxCell>
                <mxCell id="39" style="edgeStyle=none;html=1;exitX=0;exitY=0.5;exitDx=0;exitDy=0;entryX=1;entryY=0.5;entryDx=0;entryDy=0;dashed=1;strokeWidth=3;fontSize=20;" parent="1" source="40" target="31" edge="1">
                    <mxGeometry relative="1" as="geometry"/>
                </mxCell>
                <mxCell id="40" value="PetMongoDBRepository" style="rounded=1;whiteSpace=wrap;html=1;fontSize=20;fontStyle=1" parent="1" vertex="1">
                    <mxGeometry x="880" y="810" width="340" height="90" as="geometry"/>
                </mxCell>
                <mxCell id="43" value="MongoDB" style="rounded=1;whiteSpace=wrap;html=1;fontSize=20;fillColor=#e3c800;fontColor=#000000;strokeColor=#B09500;fontStyle=1" parent="1" vertex="1">
                    <mxGeometry x="1300" y="815" width="230" height="80" as="geometry"/>
                </mxCell>
                <mxCell id="44" value="ValidatorInterface" style="rounded=1;whiteSpace=wrap;html=1;fillColor=#0050ef;fontColor=#ffffff;strokeColor=#001DBC;fontSize=20;fontStyle=1" parent="1" vertex="1">
                    <mxGeometry x="330" y="445" width="305" height="90" as="geometry"/>
                </mxCell>
                <mxCell id="67" style="edgeStyle=none;html=1;exitX=0;exitY=0.25;exitDx=0;exitDy=0;entryX=1;entryY=0.25;entryDx=0;entryDy=0;strokeWidth=3;dashed=1;" parent="1" source="49" target="44" edge="1">
                    <mxGeometry relative="1" as="geometry"/>
                </mxCell>
                <mxCell id="77" style="edgeStyle=none;html=1;exitX=0;exitY=0.75;exitDx=0;exitDy=0;entryX=1;entryY=0.75;entryDx=0;entryDy=0;strokeWidth=3;" parent="1" source="49" target="44" edge="1">
                    <mxGeometry relative="1" as="geometry"/>
                </mxCell>
                <mxCell id="49" value="ValidatorComposite" style="rounded=1;whiteSpace=wrap;html=1;fontSize=20;fontStyle=1" parent="1" vertex="1">
                    <mxGeometry x="710" y="450" width="250" height="80" as="geometry"/>
                </mxCell>
                <mxCell id="60" value="MAIN" style="text;strokeColor=none;fillColor=none;html=1;fontSize=24;fontStyle=1;verticalAlign=middle;align=left;rounded=0;" parent="1" vertex="1">
                    <mxGeometry x="10" y="20" width="100" height="40" as="geometry"/>
                </mxCell>
                <mxCell id="61" value="PRESENTATION" style="text;strokeColor=none;fillColor=none;html=1;fontSize=24;fontStyle=1;verticalAlign=middle;align=left;rounded=0;" parent="1" vertex="1">
                    <mxGeometry x="10" y="270" width="100" height="40" as="geometry"/>
                </mxCell>
                <mxCell id="63" value="VALIDATION" style="text;strokeColor=none;fillColor=none;html=1;fontSize=24;fontStyle=1;verticalAlign=middle;align=left;rounded=0;" parent="1" vertex="1">
                    <mxGeometry x="660" y="370" width="100" height="40" as="geometry"/>
                </mxCell>
                <mxCell id="64" value="DOMAIN" style="text;strokeColor=none;fillColor=none;html=1;fontSize=24;fontStyle=1;verticalAlign=middle;align=left;rounded=0;" parent="1" vertex="1">
                    <mxGeometry x="10" y="630" width="100" height="40" as="geometry"/>
                </mxCell>
                <mxCell id="65" value="INFRA" style="text;strokeColor=none;fillColor=none;html=1;fontSize=24;fontStyle=1;verticalAlign=middle;align=left;rounded=0;" parent="1" vertex="1">
                    <mxGeometry x="840" y="730" width="100" height="40" as="geometry"/>
                </mxCell>
                <mxCell id="66" value="DATA" style="text;strokeColor=none;fillColor=none;html=1;fontSize=24;fontStyle=1;verticalAlign=middle;align=left;rounded=0;" parent="1" vertex="1">
                    <mxGeometry x="10" y="780" width="100" height="40" as="geometry"/>
                </mxCell>
            </root>
        </mxGraphModel>
    </diagram>
</mxfile>